<?xml version="1.0" encoding="UTF-8" standalone="no"?>
<svg
   xmlns:dc="http://purl.org/dc/elements/1.1/"
   xmlns:cc="http://creativecommons.org/ns#"
   xmlns:rdf="http://www.w3.org/1999/02/22-rdf-syntax-ns#"
   xmlns:svg="http://www.w3.org/2000/svg"
   xmlns="http://www.w3.org/2000/svg"
   xmlns:sodipodi="http://sodipodi.sourceforge.net/DTD/sodipodi-0.dtd"
   xmlns:inkscape="http://www.inkscape.org/namespaces/inkscape"
   inkscape:version="1.0beta2 (2b71d25, 2019-12-03)"
   sodipodi:docname="Sparkwood and 21 logo black SVG1-1.svg"
   viewBox="0 0 666.66669 666.66669"
   height="666.66669"
   width="666.66669"
   xml:space="preserve"
   id="svg28"
   version="1.1"><metadata
     id="metadata34"><rdf:RDF><cc:Work
         rdf:about=""><dc:format>image/svg+xml</dc:format><dc:type
           rdf:resource="http://purl.org/dc/dcmitype/StillImage" /><dc:title></dc:title></cc:Work></rdf:RDF></metadata><defs
     id="defs32"><clipPath
       id="clipPath44"
       clipPathUnits="userSpaceOnUse"><path
         inkscape:connector-curvature="0"
         id="path42"
         d="M 0,500 H 500 V 0 H 0 Z" /></clipPath></defs><sodipodi:namedview
     inkscape:current-layer="g36"
     inkscape:window-maximized="1"
     inkscape:window-y="23"
     inkscape:window-x="0"
     inkscape:cy="333.33334"
     inkscape:cx="333.33334"
     inkscape:zoom="0.88949997"
     showgrid="false"
     id="namedview30"
     inkscape:window-height="801"
     inkscape:window-width="1440"
     inkscape:pageshadow="2"
     inkscape:pageopacity="0"
     guidetolerance="10"
     gridtolerance="10"
     objecttolerance="10"
     borderopacity="1"
     inkscape:document-rotation="0"
     bordercolor="#666666"
     pagecolor="#ffffff" /><g
     transform="matrix(1.3333333,0,0,-1.3333333,0,666.66667)"
     inkscape:label="Sparkwood and 21 logo black png"
     inkscape:groupmode="layer"
     id="g36"><g
       id="g38"><g
         clip-path="url(#clipPath44)"
         id="g40"><g
           transform="translate(430.3311,162.4199)"
           id="g46"><path
             inkscape:connector-curvature="0"
             id="path48"
             style="fill:#222222;fill-opacity:1;fill-rule:evenodd;stroke:none"
             d="m 0,0 c -16.607,-29.67 -38.442,-55.438 -64.902,-76.589 -31.339,-25.054 -69.46,-43.821 -113.307,-55.782 l -2.122,-0.579 -2.122,0.579 c -43.845,11.961 -81.966,30.728 -113.305,55.782 -26.459,21.151 -48.294,46.919 -64.901,76.589 -33.301,59.489 -35.889,117.084 -35.889,133.318 0,27.773 4.55,55.295 13.527,81.806 9.749,28.795 25.055,57.404 45.492,85.031 l 3.682,4.981 5.763,-2.275 c 16.974,-6.701 44.712,-10.864 72.386,-10.864 27.089,0 52.226,3.794 72.699,10.974 l 2.668,0.934 2.668,-0.934 c 20.474,-7.18 45.614,-10.976 72.699,-10.974 27.677,0 55.417,4.163 72.394,10.864 l 5.762,2.275 3.682,-4.981 C -2.692,272.526 12.611,243.917 22.359,215.124 31.336,188.611 35.887,161.089 35.887,133.318 35.887,117.082 33.299,59.487 0,0 m 38.4,220.555 c -10.311,30.458 -26.432,60.627 -47.91,89.671 l -11.417,15.435 -17.859,-7.047 c -14.901,-5.882 -40.878,-9.68 -66.179,-9.682 -25.199,0 -48.4,3.464 -67.094,10.019 l -8.272,2.901 -8.273,-2.901 c -18.692,-6.555 -41.893,-10.019 -67.094,-10.019 -25.298,0 -51.271,3.798 -66.17,9.682 l -17.858,7.049 -11.417,-15.437 c -21.483,-29.041 -37.606,-59.211 -47.919,-89.671 -9.569,-28.263 -14.42,-57.614 -14.42,-87.237 0,-17.271 2.743,-78.523 38.045,-141.59 17.682,-31.586 40.931,-59.022 69.105,-81.543 33.154,-26.505 73.335,-46.32 119.424,-58.894 l 6.577,-1.794 6.579,1.794 c 46.09,12.574 86.269,32.389 119.424,58.892 28.175,22.523 51.425,49.961 69.105,81.545 35.3,63.065 38.043,124.319 38.043,141.59 0,29.621 -4.851,58.97 -14.42,87.237" /></g><g
           transform="translate(97.6406,415.0791)"
           id="g50"><path
             inkscape:connector-curvature="0"
             id="path52"
             style="fill:#222222;fill-opacity:1;fill-rule:nonzero;stroke:none"
             d="m 0,0 c 1.066,-1.629 2.921,-3.792 5.561,-6.488 4.888,-5.057 8.203,-9.523 9.945,-13.4 1.292,-2.978 1.939,-6.518 1.939,-10.619 0,-4.044 -1.264,-7.472 -3.793,-10.281 -2.865,-3.147 -6.855,-4.719 -11.966,-4.719 -4.214,0 -7.558,1.572 -10.029,4.719 -2.417,2.977 -3.68,6.854 -3.792,11.63 h 9.017 c 0,-2.248 0.533,-4.103 1.6,-5.563 1.068,-1.461 2.416,-2.191 4.046,-2.191 3.82,0 5.73,2.361 5.73,7.079 0,3.203 -0.731,6.153 -2.191,8.85 -1.179,2.078 -3.118,4.52 -5.814,7.331 -7.922,7.923 -11.883,15.393 -11.883,22.417 0,4.1 1.066,7.387 3.203,9.861 2.527,2.864 6.347,4.297 11.461,4.297 4.551,0 8.09,-1.574 10.618,-4.72 2.135,-2.584 3.343,-5.956 3.623,-10.112 H 8.764 c -0.393,4.269 -2.388,6.404 -5.983,6.404 -3.877,0 -5.815,-1.967 -5.815,-5.898 C -3.034,5.786 -2.023,2.922 0,0" /></g><g
           transform="translate(130.4707,409.3496)"
           id="g54"><path
             inkscape:connector-curvature="0"
             id="path56"
             style="fill:#222222;fill-opacity:1;fill-rule:nonzero;stroke:none"
             d="m 0,0 h 5.983 c 4.269,0 6.405,3.37 6.405,10.112 0,6.797 -2.136,10.198 -6.405,10.198 L 0,20.31 Z m -8.681,-39.273 v 67.42 H 6.657 c 3.146,0 5.983,-0.758 8.511,-2.276 4.383,-3.147 6.574,-8.54 6.574,-16.181 0,-3.707 -0.758,-7.163 -2.276,-10.366 -1.348,-2.753 -2.78,-4.522 -4.298,-5.307 -2.415,-1.238 -5.027,-1.855 -7.837,-1.855 H 0 v -31.435 z" /></g><g
           transform="translate(168.1172,413.3945)"
           id="g58"><path
             inkscape:connector-curvature="0"
             id="path60"
             style="fill:#222222;fill-opacity:1;fill-rule:nonzero;stroke:none"
             d="M 0,0 -2.696,-15.592 H 2.95 Z m 3.709,24.103 13.989,-67.42 h -8.85 l -4.044,18.455 h -9.608 l -4.297,-18.455 h -8.933 l 14.326,67.42 z" /></g><g
           transform="translate(199.9355,409.3496)"
           id="g62"><path
             inkscape:connector-curvature="0"
             id="path64"
             style="fill:#222222;fill-opacity:1;fill-rule:nonzero;stroke:none"
             d="m 0,0 h 5.479 c 4.268,0 6.404,3.37 6.404,10.112 0,6.797 -2.136,10.198 -6.404,10.198 L 0,20.31 Z M 13.568,-5.983 21.49,-39.44 h -8.764 l -7.5,31.602 H 0 L 0.085,-39.273 H -8.68 v 67.42 H 6.151 c 3.148,0 5.984,-0.758 8.513,-2.276 4.383,-3.147 6.572,-8.54 6.572,-16.181 0,-3.652 -0.757,-6.939 -2.275,-9.859 -1.18,-2.359 -2.612,-4.046 -4.297,-5.056 -0.282,-0.225 -0.647,-0.478 -1.096,-0.758" /></g><g
           transform="translate(240.1338,400.3311)"
           id="g66"><path
             inkscape:connector-curvature="0"
             id="path68"
             style="fill:#222222;fill-opacity:1;fill-rule:nonzero;stroke:none"
             d="m 0,0 -4.298,-9.944 v -20.31 h -8.512 v 67.503 h 8.681 V 10.365 L 7.753,37.249 h 9.438 L 5.73,11.293 17.697,-30.254 H 8.512 Z" /></g><g
           transform="translate(278.1406,437.4971)"
           id="g70"><path
             inkscape:connector-curvature="0"
             id="path72"
             style="fill:#222222;fill-opacity:1;fill-rule:nonzero;stroke:none"
             d="M 0,0 H 8.681 L 12.978,-34.216 17.276,0 h 8.765 L 17.445,-67.42 H 8.681 L 4.467,-33.711 0.338,-67.42 H -8.681 L -17.36,0 h 8.764 l 4.298,-34.131 z" /></g><g
           transform="translate(323.6484,377.915)"
           id="g74"><path
             inkscape:connector-curvature="0"
             id="path76"
             style="fill:#222222;fill-opacity:1;fill-rule:nonzero;stroke:none"
             d="M 0,0 C 2.36,-0.057 3.961,0.813 4.805,2.613 6.49,6.32 7.472,13.063 7.754,22.838 v 3.877 c 0,1.909 -0.029,3.342 -0.084,4.298 C 7.163,39.832 6.237,45.73 4.889,48.711 3.933,50.677 2.303,51.659 0,51.659 c -2.304,0 -3.933,-0.956 -4.888,-2.865 -1.347,-3.259 -2.275,-9.186 -2.78,-17.781 -0.057,-1.011 -0.084,-2.5 -0.084,-4.466 0,-1.518 0.027,-2.754 0.084,-3.709 C -7.5,13.174 -6.488,6.432 -4.635,2.613 -3.737,0.87 -2.191,0 0,0 m 0,60.002 c 6.686,0 11.124,-2.472 13.316,-7.416 2.246,-5.338 3.371,-14.663 3.371,-27.979 0,-2.134 -0.057,-3.961 -0.169,-5.476 C 15.956,12.443 15.675,9.071 15.675,9.017 15.113,4.691 14.298,1.376 13.232,-0.927 10.647,-5.872 6.237,-8.343 0,-8.343 c -6.35,0 -10.702,2.499 -13.061,7.501 -1.406,2.808 -2.445,9.102 -3.12,18.877 -0.223,3.37 -0.336,6.375 -0.336,9.017 0,11.684 1.095,20.196 3.287,25.534 1.011,2.246 2.682,4.046 5.014,5.393 2.33,1.349 5.07,2.023 8.216,2.023" /></g><g
           transform="translate(361.9082,377.915)"
           id="g78"><path
             inkscape:connector-curvature="0"
             id="path80"
             style="fill:#222222;fill-opacity:1;fill-rule:nonzero;stroke:none"
             d="m 0,0 c 2.359,-0.057 3.961,0.813 4.804,2.613 1.686,3.707 2.668,10.45 2.95,20.225 v 3.877 c 0,1.909 -0.029,3.342 -0.084,4.298 C 7.163,39.832 6.237,45.73 4.888,48.711 3.933,50.677 2.303,51.659 0,51.659 c -2.304,0 -3.933,-0.956 -4.888,-2.865 -1.347,-3.259 -2.275,-9.186 -2.78,-17.781 -0.057,-1.011 -0.084,-2.5 -0.084,-4.466 0,-1.518 0.027,-2.754 0.084,-3.709 C -7.5,13.174 -6.488,6.432 -4.635,2.613 -3.737,0.87 -2.191,0 0,0 m 0,60.002 c 6.686,0 11.124,-2.472 13.315,-7.416 2.247,-5.338 3.372,-14.663 3.372,-27.979 0,-2.134 -0.057,-3.961 -0.169,-5.476 C 15.956,12.443 15.675,9.071 15.675,9.017 15.113,4.691 14.297,1.376 13.23,-0.927 10.648,-5.872 6.237,-8.343 0,-8.343 c -6.35,0 -10.702,2.499 -13.063,7.501 -1.404,2.808 -2.443,9.102 -3.118,18.877 -0.223,3.37 -0.337,6.375 -0.337,9.017 0,11.684 1.096,20.196 3.288,25.534 1.011,2.246 2.682,4.046 5.013,5.393 2.331,1.349 5.071,2.023 8.217,2.023" /></g><g
           transform="translate(393.1738,429.6592)"
           id="g82"><path
             inkscape:connector-curvature="0"
             id="path84"
             style="fill:#222222;fill-opacity:1;fill-rule:nonzero;stroke:none"
             d="m 0,0 v -51.744 h 3.117 c 1.91,0 3.245,0.139 4.003,0.422 0.759,0.28 1.53,1.039 2.319,2.274 0.841,1.909 1.488,4.438 1.937,7.584 0.056,0.282 0.338,3.428 0.844,9.44 0.168,1.292 0.253,3.426 0.253,6.405 0,2.414 -0.057,4.325 -0.169,5.731 -0.45,7.023 -1.321,12.472 -2.613,16.347 C 8.903,-1.181 6.712,0 3.117,0 Z M -8.682,-59.582 V 7.838 H 4.381 c 6.911,0 11.462,-2.361 13.652,-7.079 0.787,-2.08 1.489,-5.087 2.108,-9.019 0.618,-3.932 0.955,-7.529 1.011,-10.786 0.112,-2.416 0.168,-4.522 0.168,-6.32 0,-1.406 -0.056,-3.709 -0.168,-6.91 -0.505,-9.947 -1.6,-16.744 -3.287,-20.395 -2.304,-4.608 -6.91,-6.911 -13.821,-6.911 z" /></g><g
           transform="translate(332.792,108.8467)"
           id="g86"><path
             inkscape:connector-curvature="0"
             id="path88"
             style="fill:#222222;fill-opacity:1;fill-rule:nonzero;stroke:none"
             d="m 0,0 h -29.988 v 192.831 h -17.379 v 15.416 c 12.517,1.493 21.114,6.728 25.786,15.694 l 21.581,0 z M -73.429,26.065 V -0.282 h -100.62 v 12.614 c 0,18.31 3.456,35.035 10.37,50.169 4.668,10.652 12.705,23.354 24.104,38.118 14.76,19.244 24.289,32.323 28.589,39.24 7.661,12.143 11.491,23.447 11.491,33.913 0,6.727 -1.73,12.236 -5.185,16.537 -3.459,4.295 -7.987,6.447 -13.591,6.447 -7.667,0 -13.271,-3.273 -16.82,-9.81 -2.802,-5.234 -4.111,-11.589 -3.924,-19.058 h -28.868 c 0,16.066 3.827,29.52 11.491,40.359 8.97,12.332 21.674,18.59 38.121,18.779 15.133,0.184 27.185,-4.861 36.155,-15.136 8.219,-9.717 12.332,-21.958 12.332,-36.715 0,-13.454 -3.459,-26.816 -10.372,-40.08 -4.483,-8.409 -12.332,-19.949 -23.543,-34.616 -11.21,-14.669 -19.156,-26.113 -23.824,-34.334 -7.664,-13.453 -12.052,-26.814 -13.172,-40.08 z m 184.281,218.491 h -387.287 c -4.672,-18.819 -7.037,-38.188 -7.037,-57.664 0,-15.283 2.446,-69.515 33.906,-125.73 34.311,-61.293 90.421,-103.155 166.774,-124.43 76.355,21.273 132.464,63.137 166.77,124.43 31.463,56.209 33.91,110.445 33.91,125.73 0,19.472 -2.366,38.837 -7.036,57.664" /></g></g></g></g></svg>
