<?xml version="1.0" encoding="UTF-8" standalone="no"?>
<!DOCTYPE svg PUBLIC "-//W3C//DTD SVG 1.1//EN" "http://www.w3.org/Graphics/SVG/1.1/DTD/svg11.dtd">
<svg width="100%" height="100%" viewBox="0 0 192 192" version="1.1" xmlns="http://www.w3.org/2000/svg" xmlns:xlink="http://www.w3.org/1999/xlink" xml:space="preserve" xmlns:serif="http://www.serif.com/" style="fill-rule:evenodd;clip-rule:evenodd;stroke-linejoin:round;stroke-miterlimit:2;">
    <g transform="matrix(1.10098,0,0,1.10098,-9.73268,-25.8732)">
        <g id="Layer1">
            <g>
                <g transform="matrix(144,0,0,144,14.4375,150.703)">
                    <path d="M0.138,-0.135C0.138,-0.167 0.127,-0.19 0.105,-0.203C0.084,-0.216 0.053,-0.223 0.012,-0.223L0.012,-0.332C0.053,-0.332 0.084,-0.339 0.105,-0.352C0.127,-0.365 0.138,-0.386 0.138,-0.416L0.138,-0.576C0.138,-0.611 0.145,-0.639 0.158,-0.658C0.172,-0.677 0.194,-0.691 0.223,-0.7C0.253,-0.709 0.293,-0.714 0.344,-0.714L0.344,-0.611C0.311,-0.61 0.289,-0.604 0.277,-0.593C0.265,-0.581 0.259,-0.564 0.259,-0.54L0.259,-0.392C0.258,-0.329 0.22,-0.292 0.146,-0.281L0.146,-0.275C0.221,-0.264 0.259,-0.229 0.259,-0.17L0.259,-0.016C0.259,0.008 0.265,0.025 0.277,0.037C0.288,0.048 0.311,0.054 0.344,0.055L0.344,0.158C0.293,0.158 0.252,0.154 0.223,0.145C0.193,0.136 0.172,0.122 0.158,0.102C0.145,0.083 0.138,0.055 0.138,0.02L0.138,-0.135Z" style="fill-rule:nonzero;"/>
                </g>
                <g transform="matrix(144,0,0,144,66.2578,162.129)">
                    <path d="M0.388,-0.197C0.388,-0.13 0.371,-0.079 0.338,-0.043C0.304,-0.008 0.255,0.01 0.192,0.01C0.13,0.01 0.077,-0.002 0.033,-0.027L0.033,-0.158C0.087,-0.123 0.136,-0.106 0.18,-0.106C0.206,-0.106 0.225,-0.113 0.238,-0.127C0.25,-0.141 0.257,-0.16 0.257,-0.184C0.257,-0.208 0.249,-0.23 0.234,-0.249C0.219,-0.269 0.193,-0.291 0.158,-0.315C0.128,-0.336 0.104,-0.356 0.089,-0.376C0.073,-0.395 0.061,-0.417 0.052,-0.441C0.043,-0.465 0.039,-0.493 0.039,-0.525C0.039,-0.586 0.056,-0.635 0.09,-0.67C0.124,-0.706 0.17,-0.724 0.227,-0.724C0.282,-0.724 0.334,-0.709 0.385,-0.678L0.341,-0.572C0.325,-0.581 0.309,-0.589 0.292,-0.596C0.275,-0.603 0.256,-0.607 0.237,-0.607C0.215,-0.607 0.199,-0.6 0.187,-0.586C0.176,-0.572 0.17,-0.552 0.17,-0.528C0.17,-0.504 0.177,-0.483 0.191,-0.465C0.205,-0.447 0.229,-0.427 0.263,-0.404C0.31,-0.373 0.342,-0.341 0.361,-0.308C0.379,-0.276 0.388,-0.238 0.388,-0.197Z" style="fill-rule:nonzero;"/>
                </g>
                <g transform="matrix(144,0,0,144,125.742,150.703)">
                    <path d="M0.223,0.02C0.223,0.071 0.208,0.107 0.177,0.127C0.145,0.148 0.092,0.158 0.016,0.158L0.016,0.055C0.049,0.054 0.072,0.048 0.084,0.037C0.096,0.026 0.102,0.008 0.102,-0.016L0.102,-0.168C0.102,-0.198 0.112,-0.222 0.131,-0.24C0.15,-0.258 0.179,-0.269 0.216,-0.275L0.216,-0.281C0.141,-0.292 0.103,-0.329 0.102,-0.392L0.102,-0.54C0.102,-0.564 0.096,-0.582 0.084,-0.593C0.072,-0.604 0.049,-0.61 0.016,-0.611L0.016,-0.714C0.092,-0.714 0.146,-0.704 0.177,-0.683C0.208,-0.662 0.223,-0.627 0.223,-0.576L0.223,-0.416C0.223,-0.386 0.234,-0.365 0.255,-0.352C0.276,-0.339 0.307,-0.332 0.348,-0.332L0.348,-0.223C0.307,-0.223 0.276,-0.216 0.255,-0.203C0.234,-0.19 0.223,-0.167 0.223,-0.135L0.223,0.02Z" style="fill-rule:nonzero;"/>
                </g>
            </g>
        </g>
    </g>
</svg>
